{"title":"1931-Las calles de la ciudad-[UÄ-tripilandia_ferdy45].avi","uid":7232296,"size":947820544,"categoryP":"video","categoryS":"movies","magnet":"?xt=urn:btih:3045355f93c9d6cb18a7116bdbdf8cd893e4a377&amp;dn=1931-Las+calles+de+la+ciudad-%5BU%26Auml%3B-tripilandia_ferdy45%5D.avi&amp;tr=udp%3A%2F%2Ftracker.openbittorrent.com%3A80&amp;tr=udp%3A%2F%2Fopen.demonii.com%3A1337&amp;tr=udp%3A%2F%2Ftracker.coppersurfer.tk%3A6969&amp;tr=udp%3A%2F%2Fexodus.desync.com%3A6969","seeders":0,"leechers":1,"uploader":"chisunn","files":1,"time":1335869456,"description":"General\nComplete name                            : D:$ COMPARTIR EN TORRENT-EMULE $CINE NEGROAÃ‘OS 301931-Las calles de la ciudad_ESPÃ‘_ferdy45.avi\nFormat                                   : AVI\nFormat/Info                              : Audio Video Interleave\nFile size                                : 904 MiB\nDuration                                 : 1h 22mn\nOverall bit rate                         : 1 537 Kbps\nWriting application                      : VirtualDubMod 1.5.10.2 (build 2540/release)\nWriting library                          : VirtualDubMod build 2540/release\n\nVideo\nID                                       : 0\nFormat                                   : MPEG-4 Visual\nFormat settings, BVOP                    : No\nFormat settings, QPel                    : No\nFormat settings, GMC                     : No warppoints\nFormat settings, Matrix                  : Default (H.263)\nCodec ID                                 : DX50\nCodec ID/Hint                            : DivX 5\nDuration                                 : 1h 22mn\nBit rate                                 : 1 399 Kbps\nWidth                                    : 512 pixels\nHeight                                   : 384 pixels\nDisplay aspect ratio                     : 4:3\nFrame rate                               : 25.000 fps\nColor space                              : YUV\nChroma subsampling                       : 4:2:0\nBit depth                                : 8 bits\nScan type                                : Progressive\nCompression mode                         : Lossy\nBits/(Pixel*Frame)                       : 0.285\nStream size                              : 823 MiB (91%)\nWriting library                          : DivX 0985\n\nAudio\nID                                       : 1\nFormat                                   : MPEG Audio\nFormat version                           : Version 1\nFormat profile                           : Layer 3\nCodec ID                                 : 55\nCodec ID/Hint                            : MP3\nDuration                                 : 1h 22mn\nBit rate mode                            : Constant\nBit rate                                 : 128 Kbps\nChannel(s)                               : 1 channel\nSampling rate                            : 44.1 KHz\nCompression mode                         : Lossy\nDelay relative to video                  : 26ms\nStream size                              : 75.3 MiB (8%)\nAlignment                                : Split accross interleaves\nInterleave, duration                     : 40 ms (1.00 video frame)\nInterleave, preload duration             : 500 ms\n","torrent":{"xt":"urn:btih:3045355f93c9d6cb18a7116bdbdf8cd893e4a377","amp;dn":"1931-Las+calles+de+la+ciudad-%5BU%26Auml%3B-tripilandia_ferdy45%5D.avi","amp;tr":["udp%3A%2F%2Ftracker.openbittorrent.com%3A80","udp%3A%2F%2Fopen.demonii.com%3A1337","udp%3A%2F%2Ftracker.coppersurfer.tk%3A6969","udp%3A%2F%2Fexodus.desync.com%3A6969"],"infoHash":"3045355f93c9d6cb18a7116bdbdf8cd893e4a377","infoHashBuffer":{"type":"Buffer","data":[48,69,53,95,147,201,214,203,24,167,17,107,219,223,140,216,147,228,163,119]},"announce":[],"urlList":[]}}